<?xml version="1.0" encoding="UTF-8"?>
<svg width="480px" height="340px" viewBox="0 0 480 340" version="1.1" xmlns="http://www.w3.org/2000/svg" xmlns:xlink="http://www.w3.org/1999/xlink">
    <!-- Generator: Sketch 40 (33762) - http://www.bohemiancoding.com/sketch -->
    <title>mcclellan-logo-dark</title>
    <desc>Created with Sketch.</desc>
    <defs>
        <path d="M195.25,34 C195.25,30.1340068 198.331737,26.4149268 202.142174,25.7883282 C202.142174,25.7883282 208.749584,24.1428901 221.624584,24.1428901 C234.499584,24.1428901 239.872199,25.7051977 239.872199,25.7051977 C243.670703,26.4202973 246.75,30.1418733 246.75,34 L246.75,34 C246.75,37.8659932 243.685743,40.3694581 239.872199,39.7051977 C239.872199,39.7051977 234.499584,38.1428901 221.624584,38.1428901 C208.749584,38.1428901 202.142174,39.7883282 202.142174,39.7883282 C198.335731,40.4575161 195.25,37.8581267 195.25,34 L195.25,34 Z" id="path-1"></path>
        <mask id="mask-2" maskContentUnits="userSpaceOnUse" maskUnits="objectBoundingBox" x="0" y="0" width="51.5" height="15.7504567" fill="white">
            <use xlink:href="#path-1"></use>
        </mask>
    </defs>
    <g id="Page-1" stroke="none" stroke-width="1" fill="none" fill-rule="evenodd">
        <g id="mcclellan-logo-dark">
            <path d="M428.458756,232.378355 C430.374684,221.498678 431.37395,210.303009 431.37395,198.87395 C431.37395,92.9048933 345.469056,7 239.5,7 C133.530944,7 47.6260504,92.9048933 47.6260504,198.87395 C47.6260504,211.274953 48.8025003,223.401182 51.0498819,235.147119 L113.203276,218.578903 L153.686004,218.578903 L186.683579,227.753982 L215.733384,243 L259.274888,243 L287.726857,227.753982 L340.554846,218.578903 L395.248882,221.578903 L428.458756,232.378355 Z" id="Forehead" stroke="#000000" stroke-width="7"></path>
            <g id="Logo" transform="translate(16.000000, 213.000000)">
                <g id="Glasses">
                    <g id="Right-Glasses">
                        <path d="M114.9375,119.384766 C138.858035,119.384766 162.312677,115.52671 175.927823,100.954761 C188.638672,83.8339844 200.719329,46.8964464 190.023438,32.4257813 C180.277432,19.2402344 154.727319,10.1328125 114.9375,10.1328125 C95.7954205,10.1328125 73.054254,10.6503378 56.5917969,16.4902344 C43.7952998,21.0296673 34.6875,27.8842375 34.6875,46 C34.6875,71.8396359 38.3304514,97.0417859 62.734375,110.056641 C77.4503375,117.90481 96.0316793,119.384766 114.9375,119.384766 Z" id="Lens" stroke="#000000" stroke-width="5"></path>
                        <path d="M193.695729,42.0549376 C197.773108,39.6048319 201.890625,38.7857172 201.890625,35.0761719 C201.890625,29.4233243 201.890625,22.0332031 193.686554,15.0145421 C185.482484,7.99588115 142.478858,2.27373675e-13 104.5,2.27373675e-13 C75.2634821,2.27373675e-13 63.2832031,3.38476563 30.0365256,9.31648018 C-3.21015187,15.2481947 1,17.7207031 1,30.5 C1,35.2683081 1.24804687,38.9414063 12.1054687,42.2851563 C21.9648437,44.8554688 22.0449219,64.6699219 27.1015625,64.6699219 C28.2117983,64.6699219 31.2225995,64.4930075 35.540743,64.2168654 C34.8945815,58.28517 34.6875,52.1607037 34.6875,46 C34.6875,27.8842375 43.7952998,21.0296673 56.5917969,16.4902344 C73.054254,10.6503378 95.7954205,10.1328125 114.9375,10.1328125 C154.727319,10.1328125 180.277432,19.2402344 190.023438,32.4257813 C191.928111,35.0026483 193.110522,38.2919577 193.695729,42.0549376 Z M14,29.2313632 C14,27.1300832 15.6915327,25.3233616 17.7851334,25.1955106 L25.2148666,24.7417955 C27.3053381,24.6141357 29,26.2072064 29,28.302724 L29,28.6270129 C29,30.7213193 27.3084673,32.3718297 25.1954756,32.3127941 L17.8045244,32.1062959 C15.7033436,32.0475903 14,30.3072014 14,28.195296 L14,29.2313632 Z" id="Combined-Shape" fill="#030303"></path>
                    </g>
                    <g id="Left-Glasses" transform="translate(344.000000, 60.000000) scale(-1, 1) translate(-344.000000, -60.000000) translate(240.000000, 0.000000)">
                        <path d="M118.351485,119.384766 C142.982531,119.384766 167.133846,115.52671 181.153402,100.954761 C194.241801,83.8339844 206.681289,46.8964464 195.667698,32.4257813 C185.632208,19.2402344 159.32318,10.1328125 118.351485,10.1328125 C98.6408291,10.1328125 75.2241823,10.6503378 58.2727413,16.4902344 C45.0961503,21.0296673 35.7178218,27.8842375 35.7178218,46 C35.7178218,71.8396359 39.4689796,97.0417859 64.5977723,110.056641 C79.7508426,117.90481 98.8841054,119.384766 118.351485,119.384766 Z" id="Lens" stroke="#000000" stroke-width="5"></path>
                        <path d="M199.449067,42.0549376 C203.647556,39.6048319 207.887376,38.7857172 207.887376,35.0761719 C207.887376,29.4233243 207.887376,22.0332031 199.43962,15.0145421 C190.991865,7.99588115 146.710903,2.27373675e-13 107.60396,2.27373675e-13 C77.499031,2.27373675e-13 65.1629022,3.38476563 30.9286997,9.31648018 C-3.30550292,15.2481947 1.02970297,17.7207031 1.02970297,30.5 C1.02970297,35.2683081 1.28511757,38.9414063 12.4650371,42.2851563 C22.6172649,44.8554688 22.6997215,64.6699219 27.9065594,64.6699219 C29.0497725,64.6699219 32.1500034,64.4930075 36.5964087,64.2168654 C35.9310542,58.28517 35.7178218,52.1607037 35.7178218,46 C35.7178218,27.8842375 45.0961503,21.0296673 58.2727413,16.4902344 C75.2241823,10.6503378 98.6408291,10.1328125 118.351485,10.1328125 C159.32318,10.1328125 185.632208,19.2402344 195.667698,32.4257813 C197.628946,35.0026483 198.846478,38.2919577 199.449067,42.0549376 Z M14.4158416,29.2313632 C14.4158416,27.1300832 16.1129678,25.3260096 18.2140289,25.2014042 L26.0631988,24.7359019 C28.1608797,24.611497 29.8613861,26.2072064 29.8613861,28.302724 L29.8613861,28.6270129 C29.8613861,30.7213193 28.1642599,32.3730412 26.0631988,32.3160323 L18.2140289,32.1030577 C16.116348,32.0461405 14.4158416,30.3072014 14.4158416,28.195296 L14.4158416,29.2313632 Z" id="Combined-Shape" fill="#030303"></path>
                    </g>
                    <use id="Bridge" stroke="#000000" mask="url(#mask-2)" stroke-width="8" fill="#000000" xlink:href="#path-1"></use>
                </g>
            </g>
        </g>
    </g>
</svg>